<?xml version="1.0" standalone="no"?>
<!DOCTYPE svg PUBLIC "-//W3C//DTD SVG 20010904//EN" "http://www.w3.org/TR/2001/REC-SVG-20010904/DTD/svg10.dtd">
<svg version="1.0" xmlns="http://www.w3.org/2000/svg" width="512.000000pt" height="512.000000pt"
  viewBox="0 0 512.000000 512.000000" preserveAspectRatio="xMidYMid meet">

  <g transform="translate(0.000000,512.000000) scale(0.100000,-0.100000)" fill="#000000" stroke="none">
    <path d="M1301 5104 c-126 -34 -249 -132 -305 -242 -50 -98 -56 -150 -56 -489
l0 -313 -54 0 c-63 0 -179 -21 -251 -45 -295 -100 -523 -344 -607 -650 -31
-114 -31 -345 0 -458 27 -99 89 -232 130 -278 92 -105 312 -127 542 -53 41 13
80 24 85 24 6 0 29 -42 50 -92 22 -51 55 -115 72 -142 l33 -48 0 -169 c0 -133
-3 -169 -13 -169 -24 0 -201 -91 -263 -135 -81 -58 -93 -89 -53 -139 32 -40
66 -34 163 29 136 89 289 143 466 165 115 14 233 13 248 -2 25 -25 8 -271 -28
-408 -44 -166 -118 -303 -224 -417 -173 -186 -395 -284 -701 -309 l-80 -6 313
314 c171 172 312 321 312 330 0 46 -42 88 -88 88 -9 0 -158 -141 -330 -313
l-314 -312 7 90 c13 170 48 304 116 439 44 88 48 117 19 146 -24 24 -82 27
-105 4 -24 -25 -89 -160 -118 -247 -47 -140 -62 -237 -62 -422 0 -187 8 -224
53 -244 41 -19 255 -26 368 -11 86 10 245 46 295 65 13 5 18 -4 23 -45 18
-135 95 -244 214 -302 l67 -33 408 -3 409 -3 61 -52 c170 -144 397 -232 633
-244 268 -14 559 86 747 256 l40 36 356 5 356 5 61 28 c77 36 154 113 191 192
l28 60 3 1091 2 1092 158 4 c146 3 161 5 217 31 79 37 156 114 192 191 l28 61
0 890 0 890 -28 61 c-36 77 -113 154 -192 191 l-60 28 -1740 2 c-1496 2 -1748
0 -1794 -13z m3106 -201 l-32 -68 -3 -418 -3 -417 25 -25 c32 -32 70 -32 101
0 l25 24 0 387 c0 276 4 399 12 428 24 81 126 156 213 156 78 0 159 -51 198
-123 l22 -42 0 -860 0 -860 -22 -40 c-27 -51 -57 -79 -113 -104 -38 -17 -66
-21 -177 -21 l-133 0 0 392 c0 388 0 392 -22 415 -30 33 -80 31 -107 -3 l-21
-27 0 -1525 c0 -1172 -3 -1534 -12 -1566 -16 -54 -90 -128 -144 -144 -28 -8
-125 -12 -297 -12 l-256 0 26 45 c70 126 18 301 -110 366 -67 34 -1519 560
-1563 566 -55 7 -142 -19 -196 -60 -27 -20 -54 -55 -73 -92 -29 -57 -30 -61
-29 -204 1 -211 44 -375 144 -541 l48 -80 -310 0 c-336 0 -363 3 -423 52 -53
44 -78 100 -82 188 l-4 75 53 32 c238 142 421 420 483 733 22 111 31 338 15
394 -16 57 -64 108 -117 124 -66 20 -284 12 -405 -14 l-28 -6 0 111 0 111 38
0 c61 0 101 16 237 94 159 91 198 123 232 189 21 42 27 66 27 122 0 82 -13
111 -104 239 -33 46 -60 86 -60 88 0 3 38 43 83 89 174 175 244 335 207 471
-16 55 -99 173 -177 252 -115 115 -262 198 -426 240 l-52 13 0 339 c0 327 1
341 22 386 26 55 81 119 130 149 80 49 18 48 1655 48 l1537 1 -32 -67z m-3329
-1009 c160 -33 304 -114 415 -233 67 -73 117 -155 117 -193 0 -41 -36 -129
-68 -168 l-29 -34 -6 57 c-13 127 -149 296 -298 370 -93 45 -139 48 -168 11
-44 -57 -25 -91 81 -142 97 -47 176 -120 215 -200 22 -45 25 -62 21 -121 -3
-38 -8 -73 -12 -80 -4 -7 -30 19 -65 67 -117 157 -265 205 -437 141 -67 -25
-156 -109 -184 -173 -50 -111 -46 -198 14 -337 39 -90 40 -90 -53 -47 -62 30
-106 78 -131 145 -51 137 -47 263 14 388 51 104 122 170 259 239 52 26 69 57
55 97 -21 60 -72 64 -177 12 -106 -52 -222 -169 -274 -274 -114 -233 -76 -527
88 -677 56 -51 56 -51 30 -58 -37 -9 -140 3 -173 20 -36 19 -55 41 -86 103
-84 168 -96 386 -30 581 121 363 505 584 882 506z m-10 -673 c20 -10 46 -30
58 -43 49 -55 329 -456 339 -486 16 -45 7 -88 -25 -120 -28 -28 -247 -155
-288 -167 -30 -9 -84 10 -110 38 -32 34 -254 532 -260 583 -9 80 36 159 113
198 42 22 127 20 173 -3z m957 -1968 c-5 -10 -10 -77 -13 -149 -5 -157 14
-253 78 -379 134 -268 392 -425 694 -425 140 0 215 18 341 80 151 74 260 174
339 312 11 21 26 38 32 38 16 0 51 -41 64 -74 17 -45 3 -80 -60 -161 -169
-212 -429 -335 -710 -336 -438 -1 -816 305 -904 733 -21 101 -21 279 -1 318
19 37 59 59 109 60 33 0 37 -3 31 -17z m731 -249 c313 -113 572 -209 576 -213
4 -4 -9 -31 -29 -61 -176 -261 -513 -348 -801 -207 -94 45 -218 168 -265 263
-49 98 -70 182 -70 289 0 78 7 135 18 135 1 0 259 -93 571 -206z" />
    <path d="M2023 4695 c-112 -52 -162 -215 -77 -254 14 -6 31 -11 38 -11 24 0
66 41 66 64 0 34 37 76 66 76 31 0 64 -33 64 -65 0 -28 40 -75 64 -75 30 0 65
23 76 51 22 51 -15 150 -72 192 -71 53 -145 60 -225 22z" />
    <path d="M3251 4694 c-111 -56 -158 -215 -75 -253 14 -6 31 -11 38 -11 24 0
66 41 66 64 0 34 37 76 66 76 31 0 64 -33 64 -65 0 -14 12 -37 26 -52 20 -20
31 -24 57 -19 68 13 84 74 43 162 -52 112 -173 153 -285 98z" />
    <path d="M2390 4440 c-44 -44 -13 -161 57 -219 68 -56 176 -65 251 -21 l34 20
33 -20 c135 -83 325 21 325 178 0 59 -20 82 -72 82 -42 0 -59 -17 -73 -74 -14
-51 -50 -75 -92 -60 -21 7 -32 20 -43 55 -20 62 -36 79 -74 79 -44 0 -64 -17
-79 -70 -26 -90 -109 -95 -137 -9 -8 26 -21 54 -29 63 -19 23 -76 21 -101 -4z" />
    <path d="M1936 3229 c-52 -41 -19 -129 49 -129 39 0 69 33 69 75 0 67 -64 96
-118 54z" />
    <path d="M2305 3225 c-14 -13 -25 -36 -25 -50 0 -14 11 -37 25 -50 l24 -25
676 0 676 0 24 25 c32 31 32 69 0 100 l-24 25 -676 0 -676 0 -24 -25z" />
    <path d="M1936 2829 c-52 -41 -19 -129 49 -129 39 0 69 33 69 75 0 67 -64 96
-118 54z" />
    <path d="M2305 2825 c-14 -13 -25 -36 -25 -50 0 -14 11 -37 25 -50 l24 -25
676 0 676 0 24 25 c32 31 32 69 0 100 l-24 25 -676 0 -676 0 -24 -25z" />
    <path d="M1936 2429 c-52 -41 -19 -129 49 -129 39 0 69 33 69 75 0 67 -64 96
-118 54z" />
    <path d="M2305 2425 c-14 -13 -25 -36 -25 -50 0 -14 11 -37 25 -50 l24 -25
676 0 676 0 24 25 c32 31 32 69 0 100 l-24 25 -676 0 -676 0 -24 -25z" />
    <path d="M1936 2029 c-52 -41 -19 -129 49 -129 39 0 69 33 69 75 0 67 -64 96
-118 54z" />
    <path d="M2305 2025 c-14 -13 -25 -36 -25 -50 0 -14 11 -37 25 -50 l24 -25
676 0 676 0 24 25 c32 31 32 69 0 100 l-24 25 -676 0 -676 0 -24 -25z" />
    <path d="M2372 997 c-28 -30 -29 -80 -2 -107 30 -30 83 -27 109 6 28 35 26 69
-4 99 -31 32 -74 33 -103 2z" />
    <path d="M2929 791 c-35 -36 -37 -61 -6 -97 17 -19 33 -27 56 -27 70 0 101 84
47 130 -36 31 -61 29 -97 -6z" />
    <path d="M2606 769 c-44 -34 -34 -102 18 -124 79 -33 142 60 81 120 -30 30
-64 32 -99 4z" />
  </g>
</svg>
